:SAMPLES-PER-SECOND 30
:FULLY-SPECIFIED
:DEGREES
184
root  -48.2183 41.4727 -36.4584 179.092 5.82825 179.588
RightUpLeg  -2.7134 -5.88018 -2.83652
RightLeg  5.20397 3.32256 2.80674
RightFoot  -0.771752 0.260927 -2.88121
RightToes  1.74622e-010 0 -3.6325e-017
Spine  4.3026 -0.126949 4.03697
Spine1  -1.33053 0.440096 -2.98069
HEad  -6.9562 4.68244 -0.813553
LeftShoulder1  0.97022 -2.3688 -9.04639
LeftArm  -9.72662 8.22915 0.570552
LeftForeArm  13.5509 -3.07494 -4.83043
LeftHand  -0.244104 0.0205437 5.32207
RightShoulder  0.581604 0.364838 7.4922
RightArm  -16.6529 2.45275 -0.789138
RightForeArm  -3.08634 0.088249 4.82042
RightHand  -1.03936 3.16447 -14.2773
LeftUpLeg  -1.98392 4.40799 3.16558
LeftLeg  1.0539 8.49922 -3.53943
LeftFoot  0.685907 0.1825 -1.77229
LeftToes  -3.34697e-010 -1.70107e-010 -9.05613e-011
185
root  -48.2454 41.4816 -36.5474 179.223 5.83023 179.584
RightUpLeg  -2.62065 -5.92363 -2.90796
RightLeg  5.01914 3.38926 2.80801
RightFoot  -0.80523 0.25413 -2.81392
RightToes  1.74622e-010 0 -3.6325e-017
Spine  4.40669 -0.162991 3.73782
Spine1  -1.43241 0.34229 -2.63967
HEad  -7.28567 4.87713 -1.02137
LeftShoulder1  0.947352 -2.26231 -8.9431
LeftArm  -9.87132 8.70605 0.733563
LeftForeArm  13.4988 -2.73911 -4.66218
LeftHand  -0.244104 0.0205437 5.32207
RightShoulder  0.560776 0.231333 7.45615
RightArm  -16.6738 2.16936 -0.957966
RightForeArm  -2.08639 -0.432191 4.63523
RightHand  -1.02293 3.05 -14.2443
LeftUpLeg  -1.90814 4.48861 3.16083
LeftLeg  0.911581 8.42319 -3.6867
LeftFoot  0.643677 0.166077 -1.61955
LeftToes  -3.34697e-010 -1.70107e-010 -9.05613e-011
186
root  -48.2724 41.4887 -36.6308 179.48 5.75197 179.598
RightUpLeg  -2.6818 -5.95442 -2.94727
RightLeg  4.86401 3.36463 2.81828
RightFoot  -0.798928 0.256413 -2.8343
RightToes  1.74622e-010 0 -3.6325e-017
Spine  4.39986 -0.172295 3.64153
Spine1  -1.57358 0.283198 -2.38593
HEad  -7.41915 4.87322 -1.16289
LeftShoulder1  0.946672 -2.19977 -9.12828
LeftArm  -10.0531 8.89381 1.22878
LeftForeArm  12.1827 -2.38287 -4.56905
LeftHand  -0.244104 0.0205437 5.32207
RightShoulder  0.462316 -0.289529 6.73971
RightArm  -16.9455 1.92726 -0.75646
RightForeArm  -1.00734 -0.896073 4.38827
RightHand  -1.04566 3.28779 -14.1695
LeftUpLeg  -2.06628 4.50244 3.12748
LeftLeg  0.917692 8.36737 -3.74284
LeftFoot  0.532981 0.151997 -1.49297
LeftToes  -3.34697e-010 -1.70107e-010 -9.05613e-011
187
root  -48.3039 41.4928 -36.7126 179.892 5.68046 179.682
RightUpLeg  -2.90722 -5.89295 -2.89515
RightLeg  4.69259 3.23999 2.80992
RightFoot  -0.788214 0.250886 -2.77193
RightToes  1.74622e-010 0 -3.6325e-017
Spine  4.107 -0.180353 3.80415
Spine1  -1.5963 0.258988 -2.3661
HEad  -7.37464 4.72277 -1.24302
LeftShoulder1  0.937638 -2.10958 -9.2424
LeftArm  -10.0178 8.91572 1.77069
LeftForeArm  11.3368 -2.29189 -4.6013
LeftHand  -0.244104 0.0205437 5.32207
RightShoulder  0.372512 -0.78634 6.00232
RightArm  -17.371 1.66597 -0.582938
RightForeArm  -1.03189 -1.14197 4.18794
RightHand  -1.11238 3.56707 -14.5988
LeftUpLeg  -2.47411 4.46589 3.10162
LeftLeg  1.07574 8.36994 -3.69051
LeftFoot  0.392801 0.143403 -1.41897
LeftToes  -3.34697e-010 -1.70107e-010 -9.05613e-011
188
root  -48.3381 41.4941 -36.7922 -179.827 5.67566 179.694
RightUpLeg  -3.06997 -5.90286 -2.9448
RightLeg  4.66051 3.25502 2.82225
RightFoot  -0.888724 0.23493 -2.63217
RightToes  1.74622e-010 0 -3.6325e-017
Spine  3.78911 -0.223218 3.96741
Spine1  -1.54962 0.245843 -2.60489
HEad  -7.13311 4.59757 -1.14198
LeftShoulder1  0.888783 -1.9649 -8.73617
LeftArm  -9.75756 9.10275 1.90979
LeftForeArm  11.2826 -2.59934 -4.71539
LeftHand  -0.244104 0.0205437 5.32207
RightShoulder  0.363278 -0.86191 6.03148
RightArm  -17.7402 1.44279 -0.976652
RightForeArm  -1.86091 -1.25816 4.08409
RightHand  -1.18896 3.85551 -15.1138
LeftUpLeg  -2.68766 4.34859 2.98157
LeftLeg  1.12231 8.5029 -3.6084
LeftFoot  0.298776 0.134491 -1.33822
LeftToes  -3.34697e-010 -1.70107e-010 -9.05613e-011
189
root  -48.3681 41.4958 -36.8597 -179.899 5.69203 179.545
RightUpLeg  -2.96577 -6.08986 -3.20279
RightLeg  4.80868 3.48675 2.86922
RightFoot  -1.07694 0.222644 -2.5585
RightToes  1.74622e-010 0 -3.6325e-017
Spine  3.85256 -0.307901 3.98186
Spine1  -1.62371 0.234708 -3.02187
HEad  -6.69308 4.59935 -0.746969
LeftShoulder1  0.818337 -1.81973 -7.7563
LeftArm  -9.52855 9.41609 1.62921
LeftForeArm  11.3119 -3.00411 -4.79952
LeftHand  -0.244104 0.0205437 5.32207
RightShoulder  0.412926 -0.639206 6.78373
RightArm  -17.8673 1.37144 -1.76697
RightForeArm  -2.32878 -1.3984 4.05856
RightHand  -1.2108 4.04669 -15.0836
LeftUpLeg  -2.43375 4.14158 2.71537
LeftLeg  0.932552 8.73026 -3.54549
LeftFoot  0.288687 0.119544 -1.19573
LeftToes  -3.34697e-010 -1.70107e-010 -9.05613e-011
190
root  -48.384 41.4963 -36.9102 179.862 5.64257 179.413
RightUpLeg  -2.68809 -6.25406 -3.42241
RightLeg  4.9404 3.63217 2.8871
RightFoot  -1.22808 0.21869 -2.56531
RightToes  1.74622e-010 0 -3.6325e-017
Spine  4.18932 -0.384791 3.93086
Spine1  -1.74371 0.210055 -3.26483
HEad  -6.25442 4.67567 -0.332747
LeftShoulder1  0.774649 -1.709 -7.18602
LeftArm  -9.44595 9.43261 1.40326
LeftForeArm  11.3665 -3.15724 -4.83532
LeftHand  -0.244104 0.0205437 5.32207
RightShoulder  0.437197 -0.553515 7.23988
RightArm  -17.7627 1.41014 -2.05667
RightForeArm  -2.04565 -1.50558 4.07404
RightHand  -1.15005 3.87821 -14.5951
LeftUpLeg  -2.0621 4.00747 2.51825
LeftLeg  0.816417 8.81337 -3.50757
LeftFoot  0.262497 0.105729 -1.0555
LeftToes  -3.34697e-010 -1.70107e-010 -9.05613e-011
191
root  -48.3829 41.4941 -36.9541 179.766 5.55588 179.457
RightUpLeg  -2.48799 -6.20634 -3.38098
RightLeg  4.92454 3.50277 2.83481
RightFoot  -1.30673 0.214618 -2.55028
RightToes  1.74622e-010 0 -3.6325e-017
Spine  4.30489 -0.383614 3.85646
Spine1  -1.63723 0.172578 -3.00718
HEad  -6.04184 4.7166 -0.343406
LeftShoulder1  0.786282 -1.68539 -7.50688
LeftArm  -9.33611 9.04621 1.57132
LeftForeArm  11.9331 -3.06997 -4.90065
LeftHand  -0.244104 0.0205437 5.32207
RightShoulder  0.402501 -0.70948 6.76731
RightArm  -17.5476 1.40931 -1.45943
RightForeArm  -1.47166 -1.43197 4.11202
RightHand  -1.06613 3.45172 -14.1856
LeftUpLeg  -1.97638 4.08674 2.57706
LeftLeg  0.99826 8.65729 -3.51148
LeftFoot  0.120787 0.100726 -1.00907
LeftToes  -3.34697e-010 -1.70107e-010 -9.05613e-011
192
root  -48.3784 41.49 -37.0021 179.84 5.56783 179.543
RightUpLeg  -2.48694 -6.09063 -3.26053
RightLeg  4.92939 3.38451 2.77585
RightFoot  -1.39326 0.20972 -2.51386
RightToes  1.74622e-010 0 -3.6325e-017
Spine  4.05831 -0.300527 3.72855
Spine1  -1.3143 0.166899 -2.50902
HEad  -5.99652 4.70331 -0.698629
LeftShoulder1  0.834089 -1.80978 -8.11757
LeftArm  -9.0319 8.68097 1.87151
LeftForeArm  12.5629 -2.92426 -5.04623
LeftHand  -0.244104 0.0205437 5.32207
RightShoulder  0.3721 -0.802938 6.07188
RightArm  -17.3144 1.35934 -0.720502
RightForeArm  -0.968305 -1.19722 4.16818
RightHand  -1.01874 3.15852 -14.0151
LeftUpLeg  -2.07464 4.23994 2.70897
LeftLeg  1.23928 8.54899 -3.55837
LeftFoot  -0.0703824 0.101535 -1.02165
LeftToes  -3.34697e-010 -1.70107e-010 -9.05613e-011
193
root  -48.386 41.488 -37.0483 179.914 5.71415 179.488
RightUpLeg  -2.59377 -6.11114 -3.31612
RightLeg  5.07967 3.54527 2.76605
RightFoot  -1.50141 0.208858 -2.53296
RightToes  1.74622e-010 0 -3.6325e-017
Spine  3.82124 -0.215856 3.62187
Spine1  -1.11272 0.218778 -2.33542
HEad  -5.90151 4.79554 -0.833332
LeftShoulder1  0.865158 -1.97329 -8.23284
LeftArm  -8.75068 8.61451 1.85394
LeftForeArm  12.6989 -2.79095 -5.16241
LeftHand  -0.244104 0.0205437 5.32207
RightShoulder  0.391681 -0.662289 6.07176
RightArm  -17.128 1.40703 -0.593727
RightForeArm  -0.557787 -0.965586 4.22946
RightHand  -0.98924 3.03247 -13.813
LeftUpLeg  -2.07103 4.24829 2.65302
LeftLeg  1.24726 8.72813 -3.59916
LeftFoot  -0.16942 0.0998433 -0.995348
LeftToes  -3.34697e-010 -1.70107e-010 -9.05613e-011
194
root  -48.4025 41.4883 -37.0793 179.929 5.84298 179.384
RightUpLeg  -2.65943 -6.19075 -3.44583
RightLeg  5.21563 3.75846 2.76687
RightFoot  -1.56025 0.210175 -2.57672
RightToes  1.74622e-010 0 -3.6325e-017
Spine  3.89347 -0.198327 3.6313
Spine1  -1.21354 0.265525 -2.48637
HEad  -5.81407 4.98792 -0.622354
LeftShoulder1  0.853875 -1.9873 -7.95828
LeftArm  -8.7998 8.66113 1.53618
LeftForeArm  12.7046 -2.7527 -5.1324
LeftHand  -0.244104 0.0205437 5.32207
RightShoulder  0.425304 -0.497306 6.48594
RightArm  -17.0652 1.61409 -0.786113
RightForeArm  -0.264485 -0.850976 4.2662
RightHand  -0.934079 2.7629 -13.4733
LeftUpLeg  -2.00398 4.1464 2.49674
LeftLeg  1.17053 8.9814 -3.58666
LeftFoot  -0.19303 0.0961155 -0.937409
LeftToes  -3.34697e-010 -1.70107e-010 -9.05613e-011
